# xmcd
#
# Track frame offsets:
#	150
#	11925
#	21480
#	35393
#	49396
#	59626
#	75736
#	91569
#	106322
#	120272
#
# Disc length: 1773 seconds
#
# Revision: 1
# Processed by: cddbd v1.5.2PL0 Copyright (c) Steve Scherf et al.
# Submitted via: audiograbber 1.83.01
#
DISCID=7b06eb0a
DTITLE=Asleep At The Wheel - 10
DYEAR=1987
DGENRE=Country
TTITLE0=Way Down Texas Way
TTITLE1=Tulsa Straight Ahead
TTITLE2=Coast To Coast
TTITLE3=House Of Blue Lights
TTITLE4=Blowin' Like A Bandit
TTITLE5=I Want A New Drug
TTITLE6=Big Foot Stomp
TTITLE7=Boogie Back To Texas
TTITLE8=String Of Pars
TTITLE9=Blues Stay Away From Me
EXTD=
EXTT0=
EXTT1=
EXTT2=
EXTT3=
EXTT4=
EXTT5=
EXTT6=
EXTT7=
EXTT8=
EXTT9=
PLAYORDER=
